<svg width="48" height="48" viewBox="0 0 48 48" fill="none" xmlns="http://www.w3.org/2000/svg">
<path fill-rule="evenodd" clip-rule="evenodd" d="M12 15.0514C12 14.3749 12.475 14.0001 12.8571 14.0001H35.1429C35.525 14.0001 36 14.3749 36 15.0514V29.8721H12V15.0514ZM41 29.8721H38V15.0514C38 13.4621 36.812 12.0001 35.1429 12.0001H12.8571C11.188 12.0001 10 13.4621 10 15.0514V29.8721H7C6.44772 29.8721 6 30.3198 6 30.8721V32.9997C6 34.6566 7.34315 35.9997 9 35.9997H39C40.6569 35.9997 42 34.6566 42 32.9997V30.8721C42 30.3198 41.5523 29.8721 41 29.8721ZM8 31.8721V32.9997C8 33.552 8.44771 33.9997 9 33.9997H39C39.5523 33.9997 40 33.552 40 32.9997V31.8721H8ZM17.5376 18.0001H16V25.2729H17.5376V18.0001ZM24.8858 18.0001H23.3553V22.574H23.2914L20.1522 18.0001H18.8027V25.2729H20.3404V20.6954H20.3936L23.5577 25.2729H24.8858V18.0001ZM27.6939 25.2729H26.1562V18.0001H29.0256C30.6768 18.0001 31.6321 18.9305 31.6321 20.3758C31.6321 21.3701 31.174 22.091 30.3466 22.4461L31.8913 25.2729H30.1939L28.8161 22.6947H27.6939V25.2729ZM27.6939 19.2572V21.4589H28.7379C29.6186 21.4589 30.0483 21.0967 30.0483 20.3758C30.0483 19.6514 29.6186 19.2572 28.7308 19.2572H27.6939Z" fill="black"/>
</svg>
